<mxfile host="app.diagrams.net" modified="2024-05-23T07:48:45.635Z" agent="Mozilla/5.0 (Macintosh; Intel Mac OS X 10_15_7) AppleWebKit/537.36 (KHTML, like Gecko) Chrome/124.0.0.0 Safari/537.36" version="24.3.1" etag="nIvE3E1tzy0LsfseTzBy" type="github">
  <diagram name="第 1 页" id="l3bkmpOqrsiD_ETJd2jc">
    <mxGraphModel>
      <root>
        <mxCell id="0" />
        <mxCell id="1" parent="0" />
      </root>
    </mxGraphModel>
  </diagram>
</mxfile>
